<svg id="Layer_1" data-name="Layer 1" xmlns="http://www.w3.org/2000/svg" viewBox="0 0 597.89 192"><defs><style>.cls-1{fill:#fff;}</style></defs><title>Artboard 2</title><path class="cls-1" d="M564.79,105a1.4,1.4,0,0,0-.24-.25c-.31-.31-.73-.21-1.08-.45s-.48-.68-.74-1a16.21,16.21,0,0,0-1.61-1.54c-.52-.45-1.1-.81-1.66-1.2-.91-.63-1.87-1.12-2.83-1.67a22.35,22.35,0,0,1-2-1.24c-.78-.56-1.48-1.17-2.27-1.67a14.08,14.08,0,0,0-1.32-1c-.41-.2-.77-.11-1.17-.26a11.19,11.19,0,0,1-1-.57,7.24,7.24,0,0,1-.76-.55c-.29-.21-.58-.56-.86-.74s-.79-.34-1.16-.55c-.57-.32-1.17-.66-1.77-1-1.4-.74-2.6-1.74-3.94-2.56-.74-.45-1.42-.92-2.12-1.4-.34-.23-.74-.39-1.08-.64s-.66-.74-1.05-1A15.09,15.09,0,0,0,533.71,84a11.36,11.36,0,0,1-2.17-1.21c-2-1.68-4.6-2.6-6.9-3.76a12,12,0,0,1-1.94-1.36c-.21-.17-.36-.36-.56-.54-.37-.35-.48-.25-.89-.45A3.3,3.3,0,0,1,520,75.48a6.46,6.46,0,0,0-1.26-1.35,3.21,3.21,0,0,0-1.25-.54,16.74,16.74,0,0,1-3.83-2.12,10.08,10.08,0,0,0-2.82-1.52c-1-.23-1.34-.82-2.13-1.45a1.13,1.13,0,0,0-.73-.31,9.47,9.47,0,0,1-3.28-1.68c-1.17-.76-2.66-1.09-3.86-2-.74-.58-1.65-1.22-2.44-1.91a5.59,5.59,0,0,0-.94-.68c-.38-.22-.71-.47-1.06-.66s-1-.29-1.44-.58-.78-.65-1.2-.95c-.84-.59-1.78-1.08-2.65-1.61l-2.5-1.53c-.74-.45-1-1.2-1.67-1.68a9.88,9.88,0,0,1-1.06-.66,4.52,4.52,0,0,0-.94-.86c-1.37-.79-3-.87-4.34-1.76a8.78,8.78,0,0,0-2.3-.86,15,15,0,0,1-2.17-1.27c-1.42-.79-2.89-1.48-4.34-2.2a7.79,7.79,0,0,1-1.51-1.16,27.26,27.26,0,0,0-2.92-1.91,14.6,14.6,0,0,1-2.72-1.51,15.87,15.87,0,0,0-3.7-2.17,26.29,26.29,0,0,0-3.83-1.75,8.86,8.86,0,0,0-1.63-.29c-1.12-.14-2.25-.22-3.38-.29-1.62-.1-3.25-.17-4.87-.23q-3.12-.12-6.23-.18-3.73-.08-7.46-.13-4.28-.06-8.56-.08l-9.53,0H405.11L394,37.55l-11.64.1-12.08.15-12.4.19-12.58.23-12.63.27-12.55.3-12.33.34-12,.38-11.52.41q-5.46.21-10.91.44-5.09.22-10.18.47-4.66.23-9.31.5-4.16.24-8.31.53-3.59.25-7.18.56c-2,.17-4,.36-5.92.59a2.54,2.54,0,0,1-2.07-.4,11.76,11.76,0,0,1-1.34-1.81,2.17,2.17,0,0,0-2.24-.74,37.54,37.54,0,0,1-5.29.31h-5c-5,0-10.13-.16-15.17,0-2.48.08-5,.4-7.46.43-1.76,0-3.48.36-5.23.46-.59,0-1.19,0-1.78,0s-1.4.2-2.12.24c-2.19.12-4.43,0-6.63,0h-6c-1.9,0-3.81,0-5.71,0s-3.79.27-5.7.4c-2.44.17-4.93.06-7.37,0-1.1,0-2.13.24-3.25.23-2.85,0-5.7,0-8.55,0h-4.66c-1.74,0-3.43.17-5.16.23s-3.37-.43-5.08-.47-3.14,0-4.73-.16a51.11,51.11,0,0,0-5.13,0,27.51,27.51,0,0,1-3.57,0,13.47,13.47,0,0,0-1.93-.18,77.21,77.21,0,0,1-11.41-.25A40.47,40.47,0,0,0,94,40.37H90.71c-2.5,0-5-.11-7.53,0-.73,0-1.36.21-2.09.2-1,0-1.82.43-2.81.45s-1.8,0-2.7,0c-1.6,0-3.2,0-4.79,0-.58,0-1-.2-1.62-.23a34.77,34.77,0,0,1-4.8-.25c-1.28-.25-2.5-.71-3.81-.9a21.82,21.82,0,0,1-2.49-.2,4.66,4.66,0,0,0-2.31.06c-.3.05-.35.09-.53-.14s-.11-.89-.14-1.1c0-.38-.1-.76-.17-1.14s-.09-.73-.3-.92c-1.5-1.36-11.26-.07-17.21.66S32.26,90,36,91.57s12.8,3.44,17.21,1c.49-.27.91-1.17,1.26-2.54,0,0,2-.18,2.49-.27s.93-.44,1.44-.49a26.16,26.16,0,0,0,2.7-.19,35.26,35.26,0,0,1,6.74-.66,77.09,77.09,0,0,0,7.91-.16c1.61-.17,3.23-.31,4.84-.54.83-.12,1.6-.43,2.42-.63a11.42,11.42,0,0,1,2.39-.19c.78,0,1.5-.24,2.28-.23,1,0,2,0,2.94,0,2.71,0,5.41-.23,8.12-.23h24.06c2.88,0,5.74-.23,8.61-.21,3.89,0,7.77-.44,11.66-.44h7.6c1.69,0,3.35.18,5,.23.52,0,1.05,0,1.57,0,.92,0,1.79.2,2.71.24,1.14,0,2.2.06,3.33.18s2.35.1,3.52.23c1.87.2,3.72.46,5.6.63a33.67,33.67,0,0,0,3.51.49c.9,0,1.74.24,2.64.21a4,4,0,0,1,1.09.17,13,13,0,0,0,2.6,0h4.32c4.1,0,8.25.14,12.33-.17,2.45-.19,4.91.08,7.36-.22,1.6-.19,3.27.2,4.86-.1a25.51,25.51,0,0,1,4.61-.17c1.06,0,2.14-.09,3.19,0s1.93.24,2.94.23a13.37,13.37,0,0,1,2.74.25c1.09.23,2.15.58,3.23.85a5.6,5.6,0,0,0,2.72,0c.33-.12.52-.53.65-.83a10.62,10.62,0,0,0,.61-2.18c.1-.5.18-1,.26-1.52q.06-.43.12-.85c0-.06,0-.3.13-.24s.07.13.1.16l.12.13c.12.11.2.25.33.36a1.12,1.12,0,0,1,.23.23,1.77,1.77,0,0,0,.14.18,4.51,4.51,0,0,1,.49.59c.07.13.21.2.29.33a1.38,1.38,0,0,0,.09.16.82.82,0,0,0,.24.14,1,1,0,0,1,.29.19.91.91,0,0,0,.19.15c.18.1.39.15.58.25s.16.13.24.19a.88.88,0,0,0,.34.12,3.05,3.05,0,0,1,.69.31.91.91,0,0,0,.21.07c.13,0,.25.08.39.11l.72.15c.31.07.62.15.95.2s.42,0,.63.09.27,0,.4,0a5,5,0,0,0,.5.06c.12,0,.24,0,.36,0a5.2,5.2,0,0,1,.52.19.85.85,0,0,1,.23.11.5.5,0,0,0,.22,0l.75,0a31.45,31.45,0,0,0,3.25,0c.61,0,1.22,0,1.83,0,1.23,0,2.46.06,3.69.11,1.74.07,3.49.15,5.23.24l6.65.35,8,.46,9.16.56,10.24.65,11.21.72,12.06.79,12.8.85,13.42.89,13.94.93,14.33,1,14.62,1,14.79,1,14.84,1,14.78,1,14.61.93,14.33.9,13.92.85,13.41.8,12.78.73,12,.66,11.18.57,10.21.48q4.56.2,9.13.37,4,.15,7.93.26c2.21.06,4.41.11,6.62.13,1.73,0,3.46,0,5.19,0,1.22,0,2.44-.05,3.65-.15a5.33,5.33,0,0,0,2-.31c.1-.06.3-.08.34-.22s0-.08,0-.12A.13.13,0,0,0,564.79,105Zm-12.48-2.91a12.34,12.34,0,0,0-1.78-.23c-1.61-.11-3.23-.13-4.84-.19-.83,0-1.67,0-2.48-.15-.36,0-.62-.07-1-.09-1.61-.06-3.34-.08-4.92-.22-.61-.05-1.15-.13-1.77-.16a15.64,15.64,0,0,1-1.64-.12,38.17,38.17,0,0,0-4-.38c-.77,0-1.52-.06-2.28-.15-1.24-.15-2.29-.22-3.58-.28L520.4,100c-1.42-.06-2.88-.08-4.3-.18s-2.81-.31-4.21-.36c-.94,0-1.83-.15-2.76-.2-.62,0-1.21-.13-1.83-.17S505.83,99,505.1,99l-3.9-.16c-1.12,0-2.19-.17-3.3-.23-2.14-.13-4.27-.19-6.41-.38-3.2-.27-6.48-.34-9.64-.74-1.5-.19-3.11-.36-4.64-.46-3.27-.2-6.59-.17-9.84-.5-.79-.08-1.54-.15-2.35-.18s-1.54-.17-2.34-.19c-.59,0-1.16,0-1.74,0-1.43,0-2.85-.08-4.28-.18-.53,0-.67-.13-1.19-.15-.36,0-.72,0-1.08,0l-2-.09-4.15-.18-8.4-.36c-1.56-.07-3.07-.22-4.62-.29-.89,0-2,0-2.92-.14-1.47-.19-2.89-.39-4.41-.51-.82-.06-1.64-.16-2.45-.21-.44,0-.95,0-1.39-.05-.28,0-.49-.09-.76-.13s-.76,0-1.1,0c-1.56-.06-3.08-.22-4.64-.28-.77,0-1.42-.13-2.17-.19-1.6-.13-3.3-.21-4.88-.38-1.4-.15-2.87-.29-4.31-.35s-2.54-.19-3.87-.25l-6.19-.27c-1.39-.06-3,0-4.32-.2-1.83-.21-3.75-.23-5.61-.4l-1.65-.17c-.53-.06-1.08-.09-1.61-.15L381.46,91c-.81-.09-1.64-.11-2.45-.2a15.09,15.09,0,0,0-1.85-.14c-1.3,0-2.45,0-3.78-.09l-10.92-.71-21.84-1.42-5.13-.33c-.74,0-1.46,0-2.19-.09s-1.61-.13-2.41-.18c-1.54-.09-3-.1-4.56-.26-1-.1-2-.09-3-.14-.47,0-.83-.11-1.3-.15-.62-.05-1.29-.05-1.91-.08l-2.8-.12c-.54,0-.91-.07-1.46-.15-.83-.12-1.64-.14-2.48-.21L311,86.48c-1.38-.12-2.82-.14-4.21-.2S304,86,302.5,85.9c-1.23-.12-2.45-.26-3.69-.31l-5.06-.22-4.39-.19c-1.63-.07-3.2-.21-4.82-.29l-2.65-.18-3-.17c-1-.11-1.92-.22-3-.3-2.19-.17-4.44-.25-6.61-.47-1.58-.16-3.17-.37-4.76-.5-1.43-.11-2.88-.13-4.31-.22q-2.87-.17-5.74-.31c-.93,0-1.89-.11-2.82-.13-1.15,0-2.3-.07-3.45-.14-.5,0-.95-.08-1.43-.13s-1,0-1.43-.08-1.06-.14-1.66-.16a6.51,6.51,0,0,1-1.17-.12,1.19,1.19,0,0,1-.56-.26.26.26,0,0,1-.08-.25c0-.22-.14-.28-.42-.49a11.61,11.61,0,0,1-1.73-1.22c-.17-.22-.59-.31-.81-.51a11.26,11.26,0,0,1,1.94.15c.45,0,.86.08,1.24.12s.64,0,1,0c1.41,0,2.79-.05,4.2,0a18.18,18.18,0,0,0,2.86-.19,24.36,24.36,0,0,1,3.4-.06,9.11,9.11,0,0,1,1.9.41,18.74,18.74,0,0,1,2.27.35,3.24,3.24,0,0,0,1.1.12h5.66c.86,0,1.72.14,2.59.13,2.05,0,4.11,0,6.16,0a15.34,15.34,0,0,1,2.67.13c2.32.41,4.74-.14,7.06.27.66.12,1.32.23,2,.32s1.26.07,1.89.18c1.45.25,2.91.47,4.37.63,1.17.14,2.35,0,3.52.2.84.14,1.64.35,2.49.46a16.19,16.19,0,0,0,1.7.16,19.45,19.45,0,0,1,2.66.08,11.26,11.26,0,0,0,2,.18h2.79c1.12,0,2.24,0,3.36,0s2.41-.35,3.61-.36c1,0,2.07,0,3.09,0,2.45.14,4.84.5,7.26.87.61.09,1.21.08,1.82.17a20.82,20.82,0,0,0,2.72.33c.54,0,1.08,0,1.62,0a24.78,24.78,0,0,1,3.11.32c.48.05.94.14,1.42.21,1,.14,1.93.47,2.91.59.43.05.85,0,1.28,0s1,.14,1.44.22a7.73,7.73,0,0,0,1.26.15c2.23,0,4.45-.12,6.68-.12h7.5a31.49,31.49,0,0,1,4.62.06c1.42.22,2.85.15,4.28.35,1.79.25,3.62,0,5.43.12.75.06,1.5.15,2.25.19.52,0,1.05,0,1.58.05s1.12.22,1.68.28c1.39.17,2.79,0,4.18.23a22.47,22.47,0,0,0,2.4.22c.42,0,.92,0,1.35,0s.76.14,1.14.19a38.11,38.11,0,0,0,3.86.3c.31,0,.68,0,1,0s.52.17.65.2a13.18,13.18,0,0,0,2.34.16c.77,0,1.54.16,2.31.15a3.91,3.91,0,0,1,.48,0,.47.47,0,0,0,.16.12,12.82,12.82,0,0,0,2.08.12c1.52,0,3,0,4.57,0a22.12,22.12,0,0,1,2.9,0c.44.06.81.17,1.28.2a10.54,10.54,0,0,1,1.53.15,17.93,17.93,0,0,0,2.88.16c.8,0,1.6.2,2.4.23l2.44.12c1.66.08,3.33-.08,5,0,.73,0,1.45.13,2.19.12,1,0,1.91.07,2.86.1a13.83,13.83,0,0,1,2,.09,8.63,8.63,0,0,0,2.37.17c.47-.05.9-.28,1.37-.34.8-.09,1.65,0,2.46,0a15.85,15.85,0,0,1,2.48.09,19.75,19.75,0,0,0,2.62,0,6.27,6.27,0,0,1,2.1.42,11.3,11.3,0,0,0,3.13.44c2.25.1,4.5,0,6.74.24.3,0,.58.13.87.16,1,.08,2,0,3,0h7.17c.82,0,1.65,0,2.47,0,.4,0,.77.13,1.18.13a10.91,10.91,0,0,1,2.08.24c1.45.29,2.89.49,4.35.7,3.36.48,6.76.54,10.13.92,2,.23,4,.5,6,.59,2.31.1,4.63,0,6.95,0,.8,0,1.64-.07,2.44,0,.34,0,.66.08,1,.1.82,0,1.63.27,2.44.39,1.21.18,2.44.22,3.67.31,1.52.11,3,.42,4.53.44a23.61,23.61,0,0,1,2.85,0,5.22,5.22,0,0,0,.84.12,8.72,8.72,0,0,1,2.08.09,24.42,24.42,0,0,0,3.43.3c.65.06,1.29.22,1.94.23h.83a8.31,8.31,0,0,1,2.4.1c.22.07.43.18.65.25a16.53,16.53,0,0,0,3.32.36,22.5,22.5,0,0,1,2.69.31l.75.2c.47.13.89.21,1.41.31s1.16.31,1.76.46c1,.23,2.13.35,3.13.56.6.13,1.29.19,1.89.31.33.06.56.15.9.21a7.31,7.31,0,0,1,1.33.32,12.4,12.4,0,0,0,2.25.77c.85.18,1.76.29,2.57.51.57.16,1.18.43,1.8.54a12.78,12.78,0,0,1,2.58.74c.52.2,1.07.39,1.67.55s1.24.28,1.83.43.95.32,1.47.45A25.33,25.33,0,0,1,552.3,102.08Z"/><path class="cls-1" d="M81.2,137.3l-.22-.59q-.12-.31-.29-.69a7.6,7.6,0,0,0-7.5-4.58,9.06,9.06,0,0,0-1.41.1,5.08,5.08,0,0,0-2,.93,4.62,4.62,0,0,0-1.69,1.76,3.09,3.09,0,0,0-.24,1.31,3.3,3.3,0,0,0,.38,1.62,6.08,6.08,0,0,0,3.13,2.24s.61.14,1.76.34l1.48.28q.52.07,1.26.24t1.7.45a8.38,8.38,0,0,1,5.23,6.06,11.1,11.1,0,0,1,.41,2.93,8.36,8.36,0,0,1-3,6.61,9.06,9.06,0,0,1-1.1.52l-.57.19-.81.29a18.82,18.82,0,0,1-4.85.86,13.51,13.51,0,0,1-4.78-.83l-1.34-.52a2,2,0,0,0-1.24-.34,1.39,1.39,0,0,0-.55.38,1.68,1.68,0,0,1-.62.59,1,1,0,0,1-1.07-.21q-.28-.28-.1-2.41a9.94,9.94,0,0,0,0-1.17q0-.31-.05-.62t0-.62v-1.58q-.07-.83-.12-1.22t-.05-.33a2.83,2.83,0,0,1,.14-.71,2,2,0,0,1,.55-.71,1.38,1.38,0,0,1,1.17.83s.13.46.31,1.24.34,1.58.62,2.55a6,6,0,0,0,1.14,1.62l.55.6.31.33a3.79,3.79,0,0,0,.48.41,5.44,5.44,0,0,0,.48.31,14.71,14.71,0,0,0,2.68.65,13.13,13.13,0,0,0,1.57.17,9.67,9.67,0,0,0,1.43,0,7,7,0,0,0,3-1.31,10,10,0,0,0,1.48-1,5.18,5.18,0,0,0,1.1-3.34,6.26,6.26,0,0,0-.38-2.1q-1.21-3.23-5.68-4.34L72,144a11.36,11.36,0,0,1-5.64-2.68,5.35,5.35,0,0,1-1.55-3.89,7,7,0,0,1,2.37-5.61,9.55,9.55,0,0,1,2.27-1,14.17,14.17,0,0,1,4.71-.86,10,10,0,0,1,4.06.76l.62.28a1.34,1.34,0,0,0,1.07.14l.24-.14a1.16,1.16,0,0,0,.24-.24,2.37,2.37,0,0,1,.62-.45.83.83,0,0,1,1,.28,3,3,0,0,1,.21,1.45v1.48q.21.9.62,2.93a2.39,2.39,0,0,1,0,.89.71.71,0,0,1-.52.79Q81.82,138.09,81.2,137.3Z"/><path class="cls-1" d="M165.51,136.92a1.08,1.08,0,0,1-.48-.86,1.31,1.31,0,0,1-.07-.33q0-.26-.07-.67a3.73,3.73,0,0,0-.69-1.89,5.13,5.13,0,0,0-2-1.65,12,12,0,0,0-2.48-.14h-1.14l-.81-.05-.77,0q-2.2,0-2.82.69a2.94,2.94,0,0,0-.59,2c0,.09,0,.24,0,.45s0,.45,0,.72,0,.51,0,.77,0,.5,0,.71v3.58a3.74,3.74,0,0,1,0,.38,1,1,0,0,0,0,.31,2.21,2.21,0,0,0,.05.28.9.9,0,0,0,.38.59,4,4,0,0,0,1.69.21,7.73,7.73,0,0,0,2-.19,1.78,1.78,0,0,0,.79-.36,2.49,2.49,0,0,0,.38-.93,6.54,6.54,0,0,0,.17-1.45v-.72a.65.65,0,0,1,1-.79,3,3,0,0,1,.52.86,3.8,3.8,0,0,1,.34,1.65v.59a2.28,2.28,0,0,1-.1.86,2.8,2.8,0,0,0,.05.4,2.78,2.78,0,0,1,.05.43v.93q0-.1.1.93.07.52.1,1t0,.83a2.59,2.59,0,0,1-.41,1.75q-.41.41-.79.21-.31,0-.52-.79-.07-.28-.12-.52t-.12-.48a3.42,3.42,0,0,0-2.37-2.58,11,11,0,0,0-2.31-.14l-.89.83V146l.1.28,0,.14,0,.14v.24a1.27,1.27,0,0,0,0,.31,21.41,21.41,0,0,1-.1,2.2q-.07,1.07-.1,1.88t0,1.36a5.24,5.24,0,0,0,.41,2.65,1.9,1.9,0,0,0,1.27.69,4.1,4.1,0,0,0,.57.05q.4,0,1.08,0A7.48,7.48,0,0,1,158,156a7.16,7.16,0,0,0,1,.12,10.79,10.79,0,0,0,2.37-.28,6.14,6.14,0,0,0,3.06-1.51,6,6,0,0,0,1.15-1.38l.88-1.48.93-1.48.45-1.48q.28-.48.59-.41t.65.62a2.39,2.39,0,0,1,.21,1.07,8.6,8.6,0,0,1-.69,2.93L168,154.3q-.1.38-.21.79t-.21.79a4.27,4.27,0,0,1-.62,1.55,1.25,1.25,0,0,1-.72.14,1.92,1.92,0,0,0-.38,0,2.49,2.49,0,0,1-.41,0,4.84,4.84,0,0,1-.65,0h-1l-11.84-.21-.62.05-.62.05-.12,0-.43.05-.45,0h-1.62l-.55,0-.43,0-.36,0a1.67,1.67,0,0,1-1.31-.55.76.76,0,0,1,.41-.79l.89-.1a4.85,4.85,0,0,0,1.76-.24q1.27-.52,1.27-3.17,0-.28,0-.55t-.05-.52q0-.24-.07-.88t-.07-1.67v-.69q0-.45,0-1.07t0-1.1v-5.4q0-.41,0-1t0-.93v-5a3,3,0,0,0-1-2.31,1.91,1.91,0,0,0-.69-.24,3.36,3.36,0,0,0-.72-.21,4.57,4.57,0,0,1-1.45.21.91.91,0,0,1-.76-.59.45.45,0,0,1,.17-.62q.38-.28,4.23-.28h2.2c.21,0,.44,0,.69,0l.59,0h2l.36,0,.46,0h8.19q1.86-.21,2.44.59s0,.86,0,2.51a18.67,18.67,0,0,1,0,2.55,1.3,1.3,0,0,1-.72,1.34Z"/><path class="cls-1" d="M244.31,132.37a11.45,11.45,0,0,0,.76,2.27q.28.69.81,2.15t1.6,4l.14.17,0,.21.17.41,1.41,3.68.59,1.17.83,1.65q.28.62.52,1.24l.48,1.24a2.63,2.63,0,0,1,.28.72l.21.76.21.62q1.07,3.2,2.79,3.72a3.93,3.93,0,0,0,1.14.14,2.26,2.26,0,0,1,1.14.24,2.12,2.12,0,0,1,.07.34q0,.41-.89.72a9.68,9.68,0,0,1-1.48.07h-.52a.91.91,0,0,1-.43-.12.85.85,0,0,0-.4-.12H253a2.18,2.18,0,0,1-.79-.1,1,1,0,0,0-.38,0h-1.14l-.38,0-.89.05q-1.1.1-1.82.1-1.86,0-2.31-.55t-.24-.89a.92.92,0,0,1,.86-.34,2.27,2.27,0,0,1,.59.24,3.31,3.31,0,0,0,.65.21,1.79,1.79,0,0,0,1.31-.1,1.58,1.58,0,0,0,.76-1.51,12.85,12.85,0,0,0-1.07-2.86l-.41-.81-.55-1.08a9.2,9.2,0,0,0-.72-1.51,1.73,1.73,0,0,0-1.1-.38q.14,0-.48.07l-2,.21h-.59a1.53,1.53,0,0,0-.86-.14h-4.34a3.08,3.08,0,0,1-.6,0l-1-.05a2.33,2.33,0,0,0-1.69.52,5.68,5.68,0,0,0-.83,1.45q-.34.72-.55,1.19a6.83,6.83,0,0,1-.31.64l-1,1.76a1.75,1.75,0,0,0-.17,1.89,2.3,2.3,0,0,0,1.2.72q1,0,1.27.59v.21a1.21,1.21,0,0,1-1,.48l-.5-.05a4.2,4.2,0,0,0-.53-.05h-5.71l-.48-.79a8.22,8.22,0,0,0,3-1.48,18.18,18.18,0,0,0,2.06-3.65q.24-.62,1.27-2.72l1-1.79q.62-1.1,1.45-2.65t2-4.1q.34-.55.77-1.36l1-1.88q.17-.41.46-1l.67-1.39a7.3,7.3,0,0,1,1.41-2.27q.65-.38,1.27-.79t1.27-.79l1-.69a2.39,2.39,0,0,1,1.38-.48q1,0,1,.72Q244.31,131.65,244.31,132.37Zm-4.47,4.89q-.48,1-1.08,2t-1.29,2a12.64,12.64,0,0,0-1,1.67,19.57,19.57,0,0,0-.93,2.29q-.28.83,0,1.07t1.82.34h3.48a4.57,4.57,0,0,1,1-.07h1.69l1-.1a1.26,1.26,0,0,0,.93-.38,10.09,10.09,0,0,0-.72-2.34l-.48-1.14-.24-1.14-.69-1.62q-.1-.21-.21-.45t-.24-.52l-.24-.59c0-.09-.06-.21-.1-.34l-.17-.48a1.24,1.24,0,0,0-.21-.76l-.38-.79a2.38,2.38,0,0,0-.55-.72,3.52,3.52,0,0,0-.59.52Z"/><path class="cls-1" d="M323,131q-.24.45-1.2.45a4.8,4.8,0,0,0-1.31.17.58.58,0,0,0-.28.65,3.15,3.15,0,0,0,.79,1.24l.76.89.76.89,1,1.31.65.72,1,1.14,1.55,1.65.62-.52,1.07-1.38.72-.79q.34-.31.93-.89t1.38-1.48a4.07,4.07,0,0,0,.24-.36l.59-.91.79-1.27q0-.45-.69-.69a2.5,2.5,0,0,1-.79-.14,2.87,2.87,0,0,1-.72-.62v-.31a.83.83,0,0,1,.69-.48q.45,0,.83,0l1.58.21a5.82,5.82,0,0,0,1.55,0l.88-.1q.4,0,.74,0h.62a2.71,2.71,0,0,0,.45,0,3,3,0,0,1,.48,0,2.64,2.64,0,0,1,1,.31l.1.38-.62.55a2.56,2.56,0,0,0-1.41.45,3.22,3.22,0,0,0-1.41.69,10.19,10.19,0,0,0-2.58,2.65l-.38.52-.29.24q-.26.21-.74.65L331.25,138q-.48.55-1,1.1t-1,1.1a3.38,3.38,0,0,0-1.07,1.93l1.7,2.19,1.81,2.32.48.65.41.76,1.41,2,.45.6.65.84.62.86q.17.17.45.52t.72.83l1.14,1.38.34.34a1.07,1.07,0,0,0,.28.21,1.28,1.28,0,0,0,.28.1l.41.07a8.6,8.6,0,0,0,1.38-.07q.79,0,1,.41t-.24.79a3.6,3.6,0,0,1-2.55.69q-.41,0-.84,0l-.91-.1-1.58-.21-.43.07-.64.1-1.07,0h-1.1q-2.79.21-3.24-.21t-.31-.79q0-.24.62-.41a1.52,1.52,0,0,1,.62-.07,4.45,4.45,0,0,0,.69.1,2.67,2.67,0,0,0,1.34-.24,1.11,1.11,0,0,0,.69-1,3.31,3.31,0,0,0-.89-1.58l-1.36-1.62-.5-.59-.41-.55a14.93,14.93,0,0,1-1-1.51l-.45-.62-.62-.62a4.71,4.71,0,0,1-.41-.62l-1-1.27a.48.48,0,0,0-.31-.17l-.07-.07,0-.21-.69-.24-.69.69-.31.48-.21.24-.14.28a7.37,7.37,0,0,1-.69.93l-.59.69a2.79,2.79,0,0,1-.26.29q-.16.15-.36.4a2.09,2.09,0,0,0-.29.28l-.4.41-1.14,1.24q-.41.38-.84.83l-.88.93q-1.27,1.48-1.14,2t1.14.86a3.65,3.65,0,0,1,1.27.28.48.48,0,0,1,.21,0q.79,0,.79.76a2.27,2.27,0,0,1-1.31.69h-6.06q-3.37,0-3.72-.34a.55.55,0,0,1-.17-.69c0-.09.14-.21.34-.34a2.05,2.05,0,0,1,.55-.28l.5-.07.95-.1a3.63,3.63,0,0,0,1.31-.55,18.74,18.74,0,0,0,2.68-2.51l4.75-5q.24-.34.72-.93t1.24-1.41q1.51-1.72,1.41-2.41a2.76,2.76,0,0,0-.93-1.58,17.86,17.86,0,0,1-1.55-1.48,2.65,2.65,0,0,0-.19-.31l-.29-.41-.24-.28-.45-.52a8.58,8.58,0,0,1-.65-.76l-.21-.45-.07-.17-.21-.24-.83-1-.55-.65a5.41,5.41,0,0,0-.59-.62l-.55-.83a11.63,11.63,0,0,0-.89-1,8.07,8.07,0,0,0-.69-.6,3.7,3.7,0,0,0-1.89-.58l-.4.05a2.79,2.79,0,0,1-.43.05,2.62,2.62,0,0,1-.89-.14,2.27,2.27,0,0,0-.14-.55.55.55,0,0,1,.14-.52,1.08,1.08,0,0,1,1.07-.48l1,.21.71.05.6,0h5l.52,0h1.48l.24-.07.5.09a1,1,0,0,1,.67.5Z"/><path class="cls-1" d="M417.92,136.92a1.08,1.08,0,0,1-.48-.86,1.27,1.27,0,0,1-.07-.33q0-.26-.07-.67a3.73,3.73,0,0,0-.69-1.89,5.13,5.13,0,0,0-2-1.65,12,12,0,0,0-2.48-.14H411l-.81-.05-.77,0q-2.2,0-2.82.69a2.94,2.94,0,0,0-.59,2c0,.09,0,.24,0,.45s0,.45,0,.72,0,.51,0,.77,0,.5,0,.71v3.58a3.76,3.76,0,0,1,0,.38,1,1,0,0,0,0,.31,2.21,2.21,0,0,0,.05.28.89.89,0,0,0,.38.59,4,4,0,0,0,1.69.21,7.73,7.73,0,0,0,2-.19,1.78,1.78,0,0,0,.79-.36,2.49,2.49,0,0,0,.38-.93,6.53,6.53,0,0,0,.17-1.45v-.72a.65.65,0,0,1,1-.79,3,3,0,0,1,.52.86,3.8,3.8,0,0,1,.34,1.65v.59a2.28,2.28,0,0,1-.1.86,2.79,2.79,0,0,0,.05.4,2.8,2.8,0,0,1,.05.43v.93q0-.1.1.93.07.52.1,1t0,.83a2.59,2.59,0,0,1-.41,1.75q-.41.41-.79.21-.31,0-.52-.79-.07-.28-.12-.52t-.12-.48a3.42,3.42,0,0,0-2.37-2.58,11,11,0,0,0-2.31-.14l-.89.83V146l.1.28,0,.14,0,.14v.24a1.27,1.27,0,0,0,0,.31,21.51,21.51,0,0,1-.1,2.2q-.07,1.07-.1,1.88t0,1.36a5.24,5.24,0,0,0,.41,2.65,1.9,1.9,0,0,0,1.27.69,4.11,4.11,0,0,0,.57.05q.4,0,1.08,0a7.48,7.48,0,0,1,1.17.12,7.15,7.15,0,0,0,1,.12,10.79,10.79,0,0,0,2.37-.28,6.14,6.14,0,0,0,3.06-1.51A6,6,0,0,0,418,153l.88-1.48.93-1.48.45-1.48q.28-.48.59-.41t.65.62a2.39,2.39,0,0,1,.21,1.07,8.59,8.59,0,0,1-.69,2.93l-.62,1.55q-.1.38-.21.79t-.21.79a4.27,4.27,0,0,1-.62,1.55,1.25,1.25,0,0,1-.72.14,1.93,1.93,0,0,0-.38,0,2.49,2.49,0,0,1-.41,0,4.84,4.84,0,0,1-.65,0h-1l-11.84-.21-.62.05-.62.05-.12,0-.43.05-.45,0H400.5l-.55,0-.43,0-.36,0a1.67,1.67,0,0,1-1.31-.55.76.76,0,0,1,.41-.79l.89-.1a4.85,4.85,0,0,0,1.75-.24q1.27-.52,1.27-3.17,0-.28,0-.55t-.05-.52q0-.24-.07-.88t-.07-1.67v-.69q0-.45,0-1.07t0-1.1v-5.4q0-.41,0-1t0-.93v-5a3,3,0,0,0-1-2.31,1.91,1.91,0,0,0-.69-.24,3.37,3.37,0,0,0-.72-.21,4.58,4.58,0,0,1-1.45.21.91.91,0,0,1-.76-.59.45.45,0,0,1,.17-.62q.38-.28,4.23-.28h2.2c.21,0,.44,0,.69,0l.59,0h2l.36,0,.46,0h8.19q1.86-.21,2.44.59s0,.86,0,2.51a18.67,18.67,0,0,1,0,2.55,1.3,1.3,0,0,1-.72,1.34Z"/><path class="cls-1" d="M501.89,137.3l-.22-.59q-.12-.31-.29-.69a7.6,7.6,0,0,0-7.5-4.58,9.06,9.06,0,0,0-1.41.1,5.08,5.08,0,0,0-2,.93,4.62,4.62,0,0,0-1.69,1.76,3.1,3.1,0,0,0-.24,1.31,3.3,3.3,0,0,0,.38,1.62,6.08,6.08,0,0,0,3.13,2.24s.61.14,1.76.34l1.48.28q.52.07,1.26.24t1.7.45a8.38,8.38,0,0,1,5.23,6.06,11.11,11.11,0,0,1,.41,2.93,8.36,8.36,0,0,1-3,6.61,9,9,0,0,1-1.1.52l-.57.19-.81.29a18.82,18.82,0,0,1-4.85.86,13.51,13.51,0,0,1-4.78-.83l-1.34-.52a2,2,0,0,0-1.24-.34,1.4,1.4,0,0,0-.55.38,1.68,1.68,0,0,1-.62.59,1,1,0,0,1-1.07-.21q-.28-.28-.1-2.41a9.94,9.94,0,0,0,0-1.17q0-.31-.05-.62c0-.21,0-.41,0-.62v-1.58q-.07-.83-.12-1.22t-.05-.33a2.84,2.84,0,0,1,.14-.71,2,2,0,0,1,.55-.71,1.38,1.38,0,0,1,1.17.83s.13.46.31,1.24.34,1.58.62,2.55a6,6,0,0,0,1.14,1.62l.55.6.31.33a3.8,3.8,0,0,0,.48.41,5.48,5.48,0,0,0,.48.31,14.71,14.71,0,0,0,2.68.65,13.12,13.12,0,0,0,1.57.17,9.67,9.67,0,0,0,1.43,0,7,7,0,0,0,3-1.31,10,10,0,0,0,1.48-1,5.18,5.18,0,0,0,1.1-3.34,6.26,6.26,0,0,0-.38-2.1q-1.21-3.23-5.68-4.34l-1.89-.45a11.36,11.36,0,0,1-5.64-2.68,5.35,5.35,0,0,1-1.55-3.89,7,7,0,0,1,2.37-5.61,9.55,9.55,0,0,1,2.27-1,14.17,14.17,0,0,1,4.71-.86,10,10,0,0,1,4.06.76l.62.28a1.34,1.34,0,0,0,1.07.14l.24-.14a1.17,1.17,0,0,0,.24-.24,2.37,2.37,0,0,1,.62-.45.83.83,0,0,1,1,.28,3,3,0,0,1,.21,1.45v1.48q.21.9.62,2.93a2.39,2.39,0,0,1,0,.89.71.71,0,0,1-.52.79Q502.51,138.09,501.89,137.3Z"/></svg>