<?xml version="1.0" encoding="utf-8"?>
<!-- Generator: Adobe Illustrator 26.4.1, SVG Export Plug-In . SVG Version: 6.00 Build 0)  -->
<svg version="1.1" id="Layer_1" xmlns="http://www.w3.org/2000/svg" xmlns:xlink="http://www.w3.org/1999/xlink" x="0px" y="0px"
	 viewBox="0 0 396 102.24" style="enable-background:new 0 0 396 102.24;" xml:space="preserve">
<style type="text/css">
	.st0{fill:#FFFFFF;}
</style>
<g>
	<g>
		<path class="st0" d="M34.26,42.48c-4.77-1.47-8.78-3.24-8.78-6.78c0-7.63,12.82-6.5,20.94-2.6l3.65-8.94
			c-13.91-5.83-36.01-4.96-36.01,12.07c0,9.44,6.99,12.55,16.91,15.97C36.56,54.12,41,56.32,41,60.8c0,8.53-13.85,9.03-22.52,2.85
			l-5.04,8.66c6.02,6.84,38.98,11.17,38.98-12.07C52.42,50.18,45.29,45.85,34.26,42.48z M76.14,76.48h39.48V66.14h-28.3V53.67h26.11
			V43.8H87.32V32.4h28.3V22.06H76.14V76.48z M135.16,76.48h12.02l4.26-9.42h21.72l4.25,9.42h12.05l-27.15-55.98L135.16,76.48z
			 M260.11,22.06h-12.83l-13.71,18.62l-13.71-18.62h-12.83l19.79,26.5l-20.97,27.92h12.83l14.89-20.13l14.89,20.13h12.83
			L240.25,48.5L260.11,22.06z M283.43,76.48h39.48V66.14h-28.3V53.67h26.11V43.8H294.6V32.4h28.3V22.06h-39.48V76.48z M364.34,42.48
			c-4.77-1.47-8.78-3.24-8.78-6.78c0-7.63,12.83-6.5,20.94-2.6l3.65-8.94c-13.92-5.83-36.01-4.96-36.01,12.07
			c0,9.44,6.98,12.55,16.91,15.97c5.58,1.93,10.03,4.13,10.03,8.6c0,8.53-13.85,9.03-22.52,2.85l-5.04,8.66
			c6.02,6.84,38.98,11.17,38.98-12.07C382.5,50.18,375.36,45.85,364.34,42.48z"/>
	</g>
</g>
</svg>
