<svg xmlns="http://www.w3.org/2000/svg" width="501.333" height="110.667"><path d="M3571.25 564.77H3760v36.25c-81.99 28.039-182.81 28.902-188.75-36.25M293.051 682.379l-39.18-95.859c-84.851 40.75-217.543 53.281-224.383-21.75H572.73v140.07h423.598V593.91H692.699v-29.14h728.551l76.05 156.789 76.06-156.789h508.36l-104.65 140.07h137.7l103.16-140.07h87.97l103.16 140.07h137.7l-105.28-140.07h355.43v140.07h423.6V593.91h-303.63v-29.14h532.03c8.51 143.902 172.38 172.179 311.09 141.171V830H0V695.352c82.578 36.097 203.52 24.527 293.051-12.973M194.648 276.801H0V233.32c84.14-35.199 183.672-23.121 194.648 43.481M3441.76 165.781l54.02 92.891c88.67-63.203 227.54-61.25 240.59 18.129h-819.49v-44.922h303.63V120.941h-423.6v155.86h-354.72l117.15-155.86h-137.7l-115.27 155.86h-88.91l-115.27-155.86h-137.7l117.03 155.86h-368.51l75.58-155.86H1659.3l-45.59 101.09h-233.05l-45.7-101.09h-128.94l75.58 155.86H692.699v-44.922h303.629V120.941H572.73v155.86H317.422C304.801 110.391 122.422 89.648 0 118.281V7.621h3760V132.07c-109.69-50.699-275.94-14.371-318.24 33.711" style="fill:#ffffff;fill-opacity:1;fill-rule:nonzero;stroke:none" transform="matrix(.13333 0 0 -.13333 0 110.667)"/></svg>